<svg xmlns="http://www.w3.org/2000/svg" viewBox="0 0 178.54 25.84"><defs><style>.cls-1{fill:#fff;}</style></defs><g id="Layer_2" data-name="Layer 2"><g id="Layer_1-2" data-name="Layer 1"><path class="cls-1" d="M4.08,25A12.75,12.75,0,0,1,.34,23.26a.88.88,0,0,1-.26-1.07l.89-2a.89.89,0,0,1,1.29-.4A13.34,13.34,0,0,0,5.2,21.19,13.58,13.58,0,0,0,9.7,22a7.75,7.75,0,0,0,4.18-.9,2.72,2.72,0,0,0,1.38-2.37,2.28,2.28,0,0,0-.77-1.78,5.39,5.39,0,0,0-2-1.09c-.79-.26-1.87-.56-3.23-.9a37.25,37.25,0,0,1-4.65-1.36,7.67,7.67,0,0,1-3-2.14A5.76,5.76,0,0,1,.33,7.5,6.69,6.69,0,0,1,1.46,3.72,7.74,7.74,0,0,1,4.87,1a14,14,0,0,1,5.59-1A18.18,18.18,0,0,1,15,.57a13.11,13.11,0,0,1,3.19,1.26.87.87,0,0,1,.36,1.1l-.8,2a.9.9,0,0,1-1.22.48,13.85,13.85,0,0,0-2.61-1,12.72,12.72,0,0,0-3.48-.5,7.31,7.31,0,0,0-4.11.93A2.88,2.88,0,0,0,5,7.29,2.22,2.22,0,0,0,5.74,9a5.38,5.38,0,0,0,2,1.08c.79.27,1.87.56,3.23.9a35.09,35.09,0,0,1,4.6,1.34,7.94,7.94,0,0,1,3.07,2.14,5.68,5.68,0,0,1,1.27,3.88,6.63,6.63,0,0,1-1.13,3.76,7.66,7.66,0,0,1-3.43,2.7,14,14,0,0,1-5.6,1A19.2,19.2,0,0,1,4.08,25Z"/><path class="cls-1" d="M94.28,19.67H82.9a.88.88,0,0,0-.82.55l-2,4.72a.9.9,0,0,1-.83.54H76.41a.89.89,0,0,1-.81-1.26L86.09.89a.91.91,0,0,1,.82-.53h3.43a.89.89,0,0,1,.82.53l10.53,23.32a.9.9,0,0,1-.82,1.27H98a.9.9,0,0,1-.83-.54l-2-4.73A.9.9,0,0,0,94.28,19.67Zm-1.49-4.92L89.42,7a.9.9,0,0,0-1.65,0l-3.34,7.8A.9.9,0,0,0,85.25,16H92A.9.9,0,0,0,92.79,14.75Z"/><path class="cls-1" d="M127.83,25.48a.89.89,0,0,1-.73-.38l-4.87-7c-.21,0-.54,0-1,0h-4.77a.9.9,0,0,0-.9.9v5.52a.9.9,0,0,1-.9.9h-2.86a.9.9,0,0,1-.9-.9V1.26a.9.9,0,0,1,.9-.9h9.43A13.85,13.85,0,0,1,127,1.44a8.19,8.19,0,0,1,3.72,3.08A8.65,8.65,0,0,1,132,9.3a8.53,8.53,0,0,1-1.38,4.88,8,8,0,0,1-3,2.63.89.89,0,0,0-.32,1.3l4.17,6a.9.9,0,0,1-.74,1.41ZM125.68,5.6a7.18,7.18,0,0,0-4.63-1.29h-4.56a.9.9,0,0,0-.9.9v8.21a.9.9,0,0,0,.9.9h4.56A7.12,7.12,0,0,0,125.68,13a4.55,4.55,0,0,0,1.58-3.71A4.51,4.51,0,0,0,125.68,5.6Z"/><path class="cls-1" d="M159.8,23.46a2.69,2.69,0,0,1-2.23-1.15S153,12.72,151,9.68c-.82-1.23-2.54-.76-3.08.68-1.22,3.29-4.62,13.18-4.62,13.18-.45,1.33-.87,2.07-1.45,1.92h0c-.56-.13-.85-.67-.75-2,0,0,1.86-14.82,3.09-19.74.5-2,1.47-3.67,3.4-3.76a4.45,4.45,0,0,1,3.93,2.37L159.11,16a.86.86,0,0,0,.75.45"/><path class="cls-1" d="M159.79,23.46A2.66,2.66,0,0,0,162,22.31s4.55-9.59,6.58-12.63c.83-1.23,2.55-.76,3.08.68,1.23,3.29,4.63,13.18,4.63,13.18.45,1.33.86,2.07,1.45,1.92h0c.56-.13.85-.67.75-2,0,0-1.86-14.82-3.1-19.74C174.92,1.76,174,.09,172,0a4.45,4.45,0,0,0-3.93,2.37L160.48,16a.86.86,0,0,1-.75.45"/><path class="cls-1" d="M47.44,2a2.66,2.66,0,0,1,2.22,1.15s4.55,9.59,6.58,12.63c.83,1.24,2.54.76,3.08-.68,1.23-3.29,4.62-13.18,4.62-13.18C64.4.61,64.81-.13,65.4,0h0c.56.13.85.67.74,2,0,0-1.85,14.82-3.09,19.75-.5,2-1.46,3.67-3.39,3.75a4.44,4.44,0,0,1-3.94-2.37L48.12,9.49A.85.85,0,0,0,47.37,9"/><path class="cls-1" d="M47.44,2a2.67,2.67,0,0,0-2.22,1.15s-4.55,9.59-6.58,12.63c-.82,1.24-2.54.76-3.08-.68-1.23-3.29-4.62-13.18-4.62-13.18C30.48.61,30.07-.13,29.48,0h0c-.55.13-.85.67-.74,2,0,0,1.86,14.82,3.09,19.75.5,2,1.47,3.67,3.39,3.75a4.44,4.44,0,0,0,3.94-2.37L46.76,9.49A.85.85,0,0,1,47.51,9"/></g></g></svg>